<?xml version="1.0" standalone="no"?>
<!DOCTYPE svg PUBLIC "-//W3C//DTD SVG 20010904//EN"
 "http://www.w3.org/TR/2001/REC-SVG-20010904/DTD/svg10.dtd">
<svg version="1.0" xmlns="http://www.w3.org/2000/svg"
 width="1024.000000pt" height="1024.000000pt" viewBox="0 0 1024.000000 1024.000000"
 preserveAspectRatio="xMidYMid meet">

<g transform="translate(0.000000,1024.000000) scale(0.100000,-0.100000)"
fill="#000000" stroke="none">
<path d="M4845 7549 c-313 -51 -549 -131 -778 -263 -341 -199 -644 -516 -819
-861 -151 -298 -209 -547 -204 -880 4 -264 45 -439 161 -683 47 -98 52 -114
37 -118 -105 -34 -183 -84 -256 -165 l-44 -49 -301 0 -301 0 0 -756 c0 -715 1
-755 18 -750 54 16 696 97 922 115 606 50 1135 65 2075 57 845 -7 842 -7 1270
-37 471 -33 1014 -94 1193 -134 l22 -5 0 755 0 755 -296 0 -295 0 -52 57 c-60
65 -147 125 -217 148 l-48 16 58 122 c110 232 148 389 157 640 16 476 -145
926 -470 1313 -318 377 -737 617 -1242 710 -107 19 -497 28 -590 13z m554
-203 c283 -53 575 -171 771 -312 156 -113 360 -315 462 -459 264 -374 388
-875 309 -1254 -12 -58 -24 -108 -26 -112 -3 -3 -28 0 -57 7 -344 87 -328 81
-403 138 -92 71 -257 241 -329 339 -229 311 -439 819 -553 1332 l-9 40 -86 3
-87 3 -3 -38 -3 -38 -277 -3 -278 -2 0 40 0 40 -94 -1 -94 -2 -12 -61 c-52
-249 -204 -685 -322 -920 -152 -303 -353 -560 -561 -717 -81 -61 -84 -62 -321
-128 -149 -42 -152 -42 -164 17 -58 271 -35 580 63 862 97 278 232 489 455
709 189 187 399 324 643 420 90 36 293 87 417 106 121 18 439 13 559 -9z
m-255 -531 l-27 -36 -29 27 c-15 15 -28 31 -28 36 0 4 25 8 56 8 l55 0 -27
-35z m-192 -57 c66 -70 67 -71 50 -94 -37 -48 -157 -183 -164 -183 -5 -1 -8
80 -8 180 l0 181 28 -6 c16 -4 55 -36 94 -78z m438 -105 l0 -188 -43 50 c-23
27 -66 76 -96 109 l-54 59 80 78 c44 44 88 79 97 79 14 0 16 -21 16 -187z
m-721 -1403 c-6 -4 -56 -15 -112 -25 -234 -40 -862 -167 -1065 -216 -67 -16
-127 -29 -132 -29 -9 0 -35 68 -28 75 1 2 102 23 223 47 205 40 220 45 223 66
3 19 58 72 75 72 4 0 7 -18 7 -40 0 -22 2 -40 5 -40 2 0 27 5 55 11 l50 11 0
79 c0 79 1 81 43 134 23 30 45 54 50 54 4 1 7 -55 7 -123 l0 -124 53 12 52 11
3 179 2 178 43 61 42 60 3 -226 2 -227 24 0 c13 0 38 3 55 6 l31 7 0 321 0
322 44 90 45 89 0 -251 c1 -138 4 -318 8 -401 5 -130 8 -150 22 -147 9 1 33 6
54 9 l37 6 0 532 0 531 43 129 42 129 3 -683 c1 -486 -1 -685 -9 -689z m943
1130 c23 -55 23 -60 28 -570 l5 -514 44 -8 c25 -4 46 -6 48 -4 2 1 4 181 6
398 l2 395 33 -61 c62 -115 61 -102 67 -443 l6 -318 27 -6 c15 -4 37 -7 49 -8
l23 -1 2 221 3 221 43 -62 44 -61 -2 -169 c-1 -190 -8 -171 73 -183 l27 -4 1
98 c2 147 2 147 58 83 41 -46 41 -48 41 -125 0 -43 3 -80 8 -82 4 -3 28 -8 54
-12 l47 -7 3 43 3 42 33 -27 c19 -17 32 -37 32 -51 0 -21 9 -24 108 -44 267
-55 312 -65 322 -71 9 -5 8 -16 -4 -39 -9 -17 -20 -31 -25 -31 -5 0 -58 12
-118 26 -59 14 -205 45 -323 69 -118 24 -323 66 -455 94 -132 27 -272 54 -312
61 -52 8 -72 16 -75 28 -1 9 -1 319 0 687 l4 670 23 -90 c13 -49 34 -115 47
-145z m-397 90 l93 -104 -68 -76 c-38 -41 -83 -90 -102 -107 l-34 -33 -92 102
c-52 58 -90 108 -87 116 8 22 179 212 188 209 5 -1 51 -50 102 -107z m173
-526 l-3 -107 -92 106 -92 106 92 102 92 103 3 -101 c1 -56 1 -150 0 -209z
m-485 229 c36 -38 76 -81 90 -98 l24 -30 -93 -100 -94 -99 0 197 c0 108 2 197
4 197 2 0 33 -30 69 -67z m399 -439 c1 -9 -183 -214 -193 -214 -16 0 -189 205
-184 218 3 8 45 58 93 112 l87 97 98 -103 c54 -57 98 -106 99 -110z m-308
-290 c54 -60 104 -110 111 -112 11 -3 62 50 243 248 l41 45 1 -167 0 -168
-280 0 -280 0 0 168 1 167 32 -36 c18 -19 76 -85 131 -145z m396 -496 l0 -172
-27 26 c-59 54 -223 148 -259 148 -27 0 -148 -68 -213 -121 l-61 -49 0 170 0
170 280 0 280 0 0 -172z m-710 -75 l-1 -208 -64 -70 -65 -70 3 265 2 265 50
11 c28 7 56 13 63 13 9 1 12 -46 12 -206z m932 191 c22 -4 42 -12 44 -18 2 -6
3 -126 2 -266 l-3 -254 -57 69 -58 69 0 209 c0 187 2 208 16 203 9 -3 34 -9
56 -12z m296 -55 l52 -12 0 -234 0 -233 -75 0 -75 0 0 251 0 251 23 -6 c12 -3
46 -11 75 -17z m-1508 -234 l0 -245 -80 0 -80 0 0 235 0 235 23 5 c37 8 71 12
105 14 l32 1 0 -245z m-290 -25 l0 -220 -65 0 -65 0 0 170 c0 126 -4 180 -14
205 -14 33 -14 35 7 40 18 5 78 16 130 24 4 0 7 -98 7 -219z m2072 200 c67
-14 68 -14 53 -36 -12 -19 -15 -60 -15 -204 l0 -180 -65 0 -65 0 0 221 c0 173
3 220 13 217 6 -3 42 -11 79 -18z m-2462 -105 c19 -19 51 -47 72 -61 l38 -27
0 -113 0 -114 -40 0 c-30 0 -42 5 -47 18 -4 9 -24 40 -45 68 -49 66 -138 214
-138 230 0 12 59 31 106 33 11 1 35 -15 54 -34z m2849 23 c28 -6 51 -15 51
-18 0 -16 -80 -150 -133 -224 -31 -43 -57 -83 -57 -88 0 -5 -19 -8 -42 -6
l-43 3 -3 107 c-2 98 -1 108 17 117 11 6 48 36 83 66 35 30 66 55 70 55 3 0
29 -5 57 -12z m-1421 -97 c75 -38 172 -163 172 -222 0 -18 -11 -19 -215 -19
-242 0 -232 -4 -199 76 24 59 80 121 137 154 62 35 58 35 105 11z m-2289 -498
c14 -3 38 -12 54 -20 26 -13 27 -17 27 -87 l0 -73 -47 23 c-56 29 -143 33
-167 8 -21 -20 -20 -63 2 -95 9 -14 65 -70 124 -122 86 -79 112 -109 137 -159
77 -161 36 -304 -107 -371 -60 -29 -76 -32 -162 -32 -73 0 -106 5 -138 19
l-42 19 0 79 c0 44 3 78 8 76 114 -59 210 -64 271 -13 64 55 46 111 -70 221
-194 183 -210 208 -210 320 0 162 137 251 320 207z m3146 -11 l50 -17 3 -78
c2 -44 -1 -77 -5 -75 -119 60 -189 71 -241 39 -18 -12 -37 -33 -42 -47 -6 -14
-10 -113 -10 -221 l0 -195 35 -35 c35 -35 37 -36 103 -31 56 4 96 16 155 46 4
2 7 -29 5 -70 l-3 -73 -36 -18 c-20 -10 -65 -23 -100 -29 -101 -18 -221 14
-276 74 -46 49 -51 80 -55 328 l-3 235 28 57 c33 68 95 114 166 123 25 4 51 8
56 10 18 7 119 -7 170 -23z m-1895 -52 l0 -70 -131 0 -132 0 7 -77 c3 -42 6
-91 6 -110 l0 -33 89 0 89 0 4 -67 c2 -38 2 -71 0 -75 -2 -5 -43 -8 -93 -8
l-89 0 0 -93 0 -92 78 3 c42 1 96 3 119 5 l42 2 3 -67 3 -67 -50 -5 c-27 -3
-104 -8 -170 -11 -66 -3 -140 -8 -165 -11 l-45 -6 3 426 2 426 215 0 215 0 0
-70z m568 3 l-3 -68 -122 -3 -123 -3 0 -104 0 -105 95 0 95 0 0 -75 0 -75 -95
0 -95 0 0 -85 0 -85 123 0 122 0 -3 -64 c-3 -56 -6 -65 -25 -70 -12 -3 -104
-6 -204 -6 l-183 0 0 405 0 405 210 0 211 0 -3 -67z m312 -264 l0 -331 130 4
130 3 0 -72 0 -73 -217 0 -218 0 0 392 0 393 80 6 c44 3 83 6 88 7 4 1 7 -147
7 -329z m1405 -92 l0 -412 -90 3 -90 3 2 412 c2 227 3 412 3 412 0 0 39 -1 87
-3 l88 -3 0 -412z m-2863 345 l3 -67 -73 4 -73 3 3 -366 3 -366 -25 0 c-14 0
-54 -3 -90 -6 l-65 -6 3 372 2 373 -72 -5 -73 -5 0 69 0 68 227 0 226 0 4 -68z
m3463 0 l0 -67 -72 4 -73 3 0 -366 0 -366 -22 0 c-13 0 -53 3 -90 7 l-68 6 0
359 0 360 -70 -4 c-55 -2 -69 0 -65 10 3 8 5 38 5 68 l0 54 228 0 227 0 0 -68z
m319 -53 c27 -66 52 -117 56 -112 5 4 29 59 56 121 l47 112 89 0 c48 0 88 -2
88 -5 0 -4 -7 -20 -17 -38 -9 -18 -54 -122 -100 -232 l-84 -200 3 -221 3 -220
-45 7 c-25 4 -66 8 -92 8 l-48 1 0 213 0 214 -84 219 c-46 120 -87 227 -91
237 -6 15 1 17 82 17 l89 0 48 -121z"/>
<path d="M3486 2945 c-16 -47 -32 -88 -36 -90 -3 -2 -19 34 -34 81 l-27 84
-46 0 c-39 0 -45 -3 -40 -17 3 -10 30 -83 61 -163 52 -138 56 -145 82 -145 25
0 29 7 61 95 19 52 35 96 37 97 1 2 20 -42 41 -97 34 -92 39 -100 64 -100 24
0 29 7 55 78 16 42 46 116 66 165 l38 87 -48 0 -48 0 -27 -80 c-15 -44 -30
-82 -35 -85 -5 -3 -21 34 -37 82 -29 86 -30 88 -64 91 l-34 3 -29 -86z"/>
<path d="M3980 2860 l0 -170 93 -2 c50 -1 107 -2 125 -3 31 -2 32 -1 32 36 l0
38 -87 3 -88 3 0 30 0 30 73 3 72 3 0 29 0 29 -72 3 c-71 3 -73 4 -76 31 l-3
27 90 0 91 0 0 40 0 40 -125 0 -125 0 0 -170z"/>
<path d="M4385 3020 c-3 -5 -3 -82 1 -170 l7 -160 109 0 c108 0 110 0 139 29
33 34 39 86 14 125 -14 20 -13 26 0 54 14 27 14 35 1 67 -21 49 -63 65 -175
65 -49 0 -93 -4 -96 -10z m193 -97 c-3 -27 -6 -28 -60 -31 l-58 -3 0 31 0 30
61 0 c60 0 60 0 57 -27z m9 -109 c12 -32 -11 -49 -71 -52 l-56 -3 0 36 0 35
60 0 c47 0 62 -4 67 -16z"/>
<path d="M4990 3024 c0 -4 26 -81 58 -171 54 -156 58 -163 82 -161 22 3 29 15
60 100 31 86 50 120 50 88 0 -6 14 -51 31 -100 29 -83 34 -90 58 -90 25 0 29
8 79 153 29 83 56 160 59 170 5 16 0 18 -37 15 l-44 -3 -28 -80 c-16 -44 -31
-81 -33 -83 -2 -2 -16 35 -31 82 l-28 86 -36 0 -36 0 -28 -86 c-15 -47 -29
-84 -31 -82 -2 2 -17 39 -33 83 l-28 80 -42 3 c-23 2 -42 0 -42 -4z"/>
<path d="M5632 3014 c-41 -21 -66 -56 -82 -112 -22 -82 17 -164 95 -202 55
-27 110 -22 166 15 95 62 98 220 6 288 -37 29 -139 34 -185 11z m140 -83 c62
-55 34 -150 -48 -167 -26 -5 -38 -1 -65 24 -28 25 -34 37 -34 72 0 35 6 47 33
71 18 16 43 29 57 29 14 0 39 -13 57 -29z"/>
<path d="M6030 2860 l0 -170 35 0 35 0 0 55 c0 52 1 55 25 55 19 0 32 -13 60
-55 34 -54 36 -55 81 -55 l46 0 -23 38 c-12 20 -28 45 -34 55 -10 15 -7 23 21
51 40 40 45 92 14 143 -24 40 -67 53 -177 53 l-83 0 0 -170z m195 50 l0 -35
-62 -3 -63 -3 0 41 0 41 63 -3 62 -3 0 -35z"/>
<path d="M6621 2988 c-17 -24 -44 -59 -60 -78 l-30 -35 -1 73 0 72 -40 0 -40
0 0 -164 c0 -91 3 -167 8 -169 4 -3 22 -2 40 0 29 5 32 9 32 40 0 37 15 73 30
73 5 0 28 -25 52 -55 41 -53 44 -55 91 -55 l49 0 -67 85 -66 85 55 74 c31 41
56 79 56 85 0 6 -18 11 -40 11 -35 0 -42 -5 -69 -42z"/>
<path d="M6902 3013 c-33 -16 -62 -57 -62 -88 0 -10 8 -30 17 -45 15 -25 37
-39 121 -71 15 -6 22 -16 20 -27 -4 -23 -58 -27 -114 -8 l-44 15 0 -38 c0 -31
5 -40 25 -49 105 -48 220 -2 220 88 0 49 -33 86 -89 101 -46 12 -66 26 -66 44
0 21 38 25 88 9 26 -7 48 -14 50 -14 1 0 2 17 2 39 0 37 -1 39 -44 50 -60 15
-85 14 -124 -6z"/>
</g>
</svg>
